<svg width="18" height="18" viewBox="0 0 18 18" fill="none" xmlns="http://www.w3.org/2000/svg">
<g clip-path="url(#clip0)">
<path d="M16.3081 4.02333L15.9107 2.832C15.7594 2.37827 15.3362 2.07339 14.8581 2.07339H11.5178V0.985886C11.5178 0.442337 11.0759 0 10.5325 0H7.47361C6.93033 0 6.48827 0.442337 6.48827 0.985886V2.07339H3.14815C2.66983 2.07339 2.24672 2.37827 2.09539 2.832L1.69796 4.02333C1.60746 4.29456 1.65332 4.59489 1.82045 4.82684C1.98758 5.05879 2.25798 5.19736 2.5439 5.19736H2.95932L3.87366 16.5038C3.94164 17.3427 4.65355 18 5.49469 18H12.6969C13.5379 18 14.25 17.3427 14.3178 16.5037L15.2322 5.19736H15.4622C15.7481 5.19736 16.0185 5.05879 16.1856 4.82698C16.3528 4.59503 16.3986 4.29456 16.3081 4.02333ZM7.54296 1.05469H10.4631V2.07339H7.54296V1.05469ZM13.2666 16.4187C13.2427 16.7141 12.9925 16.9453 12.6969 16.9453H5.49469C5.19916 16.9453 4.94895 16.7141 4.92505 16.4187L4.01744 5.19736H14.174L13.2666 16.4187ZM2.77008 4.14267L3.09597 3.16571C3.10338 3.14319 3.12439 3.12808 3.14815 3.12808H14.8581C14.8818 3.12808 14.9027 3.14319 14.9103 3.16571L15.2361 4.14267H2.77008Z" fill="#222222"/>
<path d="M11.5849 16.3813C11.5942 16.3818 11.6034 16.382 11.6128 16.382C11.8914 16.382 12.1243 16.1636 12.1389 15.8821L12.6341 6.3759C12.6492 6.08503 12.4256 5.83688 12.1349 5.82177C11.8433 5.80626 11.596 6.0301 11.5808 6.32097L11.0857 15.8272C11.0706 16.118 11.294 16.3662 11.5849 16.3813Z" fill="#222222"/>
<path d="M5.89141 15.8833C5.90679 16.1644 6.13943 16.382 6.41752 16.382C6.42713 16.382 6.43702 16.3817 6.44677 16.3811C6.73749 16.3654 6.96038 16.1168 6.94458 15.8259L6.42589 6.31973C6.4101 6.02886 6.16154 5.80598 5.87068 5.82191C5.57995 5.8377 5.35707 6.08627 5.37286 6.37713L5.89141 15.8833Z" fill="#222222"/>
<path d="M9.00879 16.382C9.30006 16.382 9.53613 16.1459 9.53613 15.8546V6.34845C9.53613 6.05717 9.30006 5.82111 9.00879 5.82111C8.71751 5.82111 8.48145 6.05717 8.48145 6.34845V15.8546C8.48145 16.1459 8.71751 16.382 9.00879 16.382Z" fill="#222222"/>
</g>
<defs>
<clipPath id="clip0">
<rect width="18" height="18" fill="white"/>
</clipPath>
</defs>
</svg>
